<mxfile host="app.diagrams.net" agent="Mozilla/5.0 (Windows NT 10.0; Win64; x64) AppleWebKit/537.36 (KHTML, like Gecko) Chrome/135.0.0.0 Safari/537.36" version="28.2.7">
  <diagram name="AI训练数据处理" id="o2N9xbc35cb2pJkKsNzA">
    <mxGraphModel dx="1295" dy="685" grid="1" gridSize="10" guides="1" tooltips="1" connect="1" arrows="1" fold="1" page="1" pageScale="1" pageWidth="1169" pageHeight="827" math="0" shadow="0">
      <root>
        <mxCell id="0" />
        <mxCell id="1" parent="0" />
        <mxCell id="fKHp6TarYO2tzrqod3Yr-4" value="" style="rounded=0;whiteSpace=wrap;html=1;fillColor=none;strokeColor=#4A90E2;" vertex="1" parent="1">
          <mxGeometry x="120" y="280" width="120" height="200" as="geometry" />
        </mxCell>
        <mxCell id="fKHp6TarYO2tzrqod3Yr-5" value="&lt;font color=&quot;#4a90e2&quot;&gt;&lt;span style=&quot;font-size: 14px;&quot;&gt;&lt;b&gt;视频汇聚平台&lt;/b&gt;&lt;/span&gt;&lt;/font&gt;" style="text;html=1;align=center;verticalAlign=middle;whiteSpace=wrap;rounded=0;" vertex="1" parent="1">
          <mxGeometry x="130" y="291.1111111111111" width="20" height="177.77777777777777" as="geometry" />
        </mxCell>
        <mxCell id="fKHp6TarYO2tzrqod3Yr-6" value="" style="group" vertex="1" connectable="0" parent="1">
          <mxGeometry x="160" y="285.11" width="70" height="30" as="geometry" />
        </mxCell>
        <mxCell id="fKHp6TarYO2tzrqod3Yr-7" value="" style="group" vertex="1" connectable="0" parent="fKHp6TarYO2tzrqod3Yr-6">
          <mxGeometry width="70" height="30" as="geometry" />
        </mxCell>
        <mxCell id="fKHp6TarYO2tzrqod3Yr-8" value="" style="rounded=0;whiteSpace=wrap;html=1;fillColor=none;strokeColor=#8EC0E4;" vertex="1" parent="fKHp6TarYO2tzrqod3Yr-7">
          <mxGeometry width="70" height="30" as="geometry" />
        </mxCell>
        <mxCell id="fKHp6TarYO2tzrqod3Yr-9" value="&lt;font style=&quot;font-size: 12px;&quot; color=&quot;#8ec0e4&quot;&gt;摄像头01&lt;/font&gt;" style="text;html=1;align=center;verticalAlign=middle;whiteSpace=wrap;rounded=0;" vertex="1" parent="fKHp6TarYO2tzrqod3Yr-7">
          <mxGeometry x="7.865168539325843" y="6" width="54.26966292134831" height="19.5" as="geometry" />
        </mxCell>
        <mxCell id="fKHp6TarYO2tzrqod3Yr-10" value="" style="group" vertex="1" connectable="0" parent="1">
          <mxGeometry x="160" y="324" width="70" height="30" as="geometry" />
        </mxCell>
        <mxCell id="fKHp6TarYO2tzrqod3Yr-11" value="" style="group" vertex="1" connectable="0" parent="fKHp6TarYO2tzrqod3Yr-10">
          <mxGeometry width="70" height="30" as="geometry" />
        </mxCell>
        <mxCell id="fKHp6TarYO2tzrqod3Yr-12" value="" style="rounded=0;whiteSpace=wrap;html=1;fillColor=none;strokeColor=#8EC0E4;" vertex="1" parent="fKHp6TarYO2tzrqod3Yr-11">
          <mxGeometry width="70" height="30" as="geometry" />
        </mxCell>
        <mxCell id="fKHp6TarYO2tzrqod3Yr-13" value="&lt;font style=&quot;font-size: 12px;&quot; color=&quot;#8ec0e4&quot;&gt;摄像头02&lt;/font&gt;" style="text;html=1;align=center;verticalAlign=middle;whiteSpace=wrap;rounded=0;" vertex="1" parent="fKHp6TarYO2tzrqod3Yr-11">
          <mxGeometry x="7.865168539325843" y="6" width="54.26966292134831" height="19.5" as="geometry" />
        </mxCell>
        <mxCell id="fKHp6TarYO2tzrqod3Yr-14" value="" style="group" vertex="1" connectable="0" parent="1">
          <mxGeometry x="160" y="364" width="70" height="30" as="geometry" />
        </mxCell>
        <mxCell id="fKHp6TarYO2tzrqod3Yr-15" value="" style="group" vertex="1" connectable="0" parent="fKHp6TarYO2tzrqod3Yr-14">
          <mxGeometry width="70" height="30" as="geometry" />
        </mxCell>
        <mxCell id="fKHp6TarYO2tzrqod3Yr-16" value="" style="rounded=0;whiteSpace=wrap;html=1;fillColor=none;strokeColor=#8EC0E4;" vertex="1" parent="fKHp6TarYO2tzrqod3Yr-15">
          <mxGeometry width="70" height="30" as="geometry" />
        </mxCell>
        <mxCell id="fKHp6TarYO2tzrqod3Yr-17" value="&lt;font style=&quot;font-size: 12px;&quot; color=&quot;#8ec0e4&quot;&gt;摄像头03&lt;/font&gt;" style="text;html=1;align=center;verticalAlign=middle;whiteSpace=wrap;rounded=0;" vertex="1" parent="fKHp6TarYO2tzrqod3Yr-15">
          <mxGeometry x="7.865168539325843" y="6" width="54.26966292134831" height="19.5" as="geometry" />
        </mxCell>
        <mxCell id="fKHp6TarYO2tzrqod3Yr-18" value="" style="group" vertex="1" connectable="0" parent="1">
          <mxGeometry x="160" y="404" width="70" height="30" as="geometry" />
        </mxCell>
        <mxCell id="fKHp6TarYO2tzrqod3Yr-19" value="" style="group" vertex="1" connectable="0" parent="fKHp6TarYO2tzrqod3Yr-18">
          <mxGeometry width="70" height="30" as="geometry" />
        </mxCell>
        <mxCell id="fKHp6TarYO2tzrqod3Yr-20" value="" style="rounded=0;whiteSpace=wrap;html=1;fillColor=none;strokeColor=#8EC0E4;" vertex="1" parent="fKHp6TarYO2tzrqod3Yr-19">
          <mxGeometry width="70" height="30" as="geometry" />
        </mxCell>
        <mxCell id="fKHp6TarYO2tzrqod3Yr-21" value="&lt;font style=&quot;font-size: 12px;&quot; color=&quot;#8ec0e4&quot;&gt;摄像头04&lt;/font&gt;" style="text;html=1;align=center;verticalAlign=middle;whiteSpace=wrap;rounded=0;" vertex="1" parent="fKHp6TarYO2tzrqod3Yr-19">
          <mxGeometry x="7.865168539325843" y="6" width="54.26966292134831" height="19.5" as="geometry" />
        </mxCell>
        <mxCell id="fKHp6TarYO2tzrqod3Yr-22" value="" style="group" vertex="1" connectable="0" parent="1">
          <mxGeometry x="160" y="444" width="70" height="30" as="geometry" />
        </mxCell>
        <mxCell id="fKHp6TarYO2tzrqod3Yr-23" value="" style="group" vertex="1" connectable="0" parent="fKHp6TarYO2tzrqod3Yr-22">
          <mxGeometry width="70" height="30" as="geometry" />
        </mxCell>
        <mxCell id="fKHp6TarYO2tzrqod3Yr-24" value="" style="rounded=0;whiteSpace=wrap;html=1;fillColor=none;strokeColor=#8EC0E4;" vertex="1" parent="fKHp6TarYO2tzrqod3Yr-23">
          <mxGeometry width="70" height="30" as="geometry" />
        </mxCell>
        <mxCell id="fKHp6TarYO2tzrqod3Yr-25" value="&lt;font color=&quot;#8ec0e4&quot;&gt;&lt;b&gt;......&lt;/b&gt;&lt;/font&gt;" style="text;html=1;align=center;verticalAlign=middle;whiteSpace=wrap;rounded=0;" vertex="1" parent="fKHp6TarYO2tzrqod3Yr-23">
          <mxGeometry x="7.865168539325843" y="6" width="54.26966292134831" height="19.5" as="geometry" />
        </mxCell>
      </root>
    </mxGraphModel>
  </diagram>
</mxfile>
